<?xml version="1.0" encoding="UTF-8"?><svg id="Capa_1" xmlns="http://www.w3.org/2000/svg" width="144.901mm" height="45.0002mm" viewBox="0 0 410.7431 127.5596"><defs><style>.cls-1{fill:#fff;}.cls-2{fill:#989f96;}</style></defs><g><path class="cls-1" d="m205.9736,14.1787h3.8789v28.2822h-3.8789V14.1787Z"/><path class="cls-1" d="m235.5537,23.1689c1.4258,1.4678,2.1406,3.4971,2.1406,6.083v13.209h-3.7598v-12.2012c0-1.8037-.5058-3.2119-1.5156-4.2207-1.0097-1.0107-2.4043-1.5156-4.1816-1.5156-1.9121.0264-3.4688.6406-4.668,1.8369-1.1973,1.2002-1.8769,2.7559-2.0371,4.669v11.4316h-3.7598v-21.373h3.7598v4.5244c1.4277-3.043,4.1328-4.5899,8.1211-4.6436,2.5019,0,4.4707.7315,5.9004,2.2002Z"/><path class="cls-1" d="m264.5224,12.4805v29.9804h-3.7597v-4.2422c-.8067,1.4287-1.8907,2.5254-3.252,3.294-1.3574.7676-2.9433,1.1513-4.748,1.1513-2.0196,0-3.8028-.4638-5.3516-1.3925-1.5488-.9297-2.7539-2.2227-3.6172-3.8789-.8613-1.6592-1.2929-3.5479-1.2929-5.6778,0-2.1015.4316-3.9658,1.2929-5.5957.8633-1.6308,2.0684-2.9033,3.6172-3.8174,1.5488-.917,3.3184-1.375,5.3145-1.375,1.8281,0,3.4336.378,4.8066,1.1309,1.373.7549,2.4492,1.8447,3.2305,3.2725v-12.8496h3.7597Zm-7.2519,25.9824c1.0898-.6465,1.9453-1.5489,2.5644-2.7061.6192-1.1601.9278-2.4658.9278-3.9199,0-1.4824-.3086-2.8018-.9278-3.9609-.6191-1.1582-1.4746-2.0586-2.5644-2.7061-1.0938-.6465-2.3379-.9717-3.7383-.9717s-2.6465.3321-3.7383.9912c-1.0898.6612-1.9453,1.5694-2.5644,2.7276-.6211,1.1572-.9297,2.4658-.9297,3.9199s.3086,2.7598.9297,3.9199c.6191,1.1572,1.4746,2.0596,2.5644,2.7061,1.0918.6474,2.3379.9697,3.7383.9697s2.6445-.3223,3.7383-.9697Z"/><path class="cls-1" d="m291.1865,21.0879v21.373h-3.7988v-4.5244c-1.4004,3.0469-4.0391,4.5918-7.916,4.6475-2.4786,0-4.42-.7325-5.8204-2.2022-1.4003-1.4668-2.0996-3.4971-2.0996-6.081v-13.2129h3.7969v12.2031c0,1.8047.4922,3.2119,1.4746,4.2227.9844,1.0087,2.336,1.5136,4.0606,1.5136,1.9922-.0254,3.5761-.7324,4.748-2.1201,1.1699-1.3877,1.7559-3.1572,1.7559-5.3144v-10.5049h3.7988Zm-7.2324-9.0088l3.8789,1.6963-5.0098,3.9609-3.1914-.4062,4.3223-5.251Z"/><path class="cls-1" d="m307.4502,24.5234c-1.0645-.3252-2.0821-.4853-3.0508-.4853-1.1309,0-2.0391.209-2.7285.6279-.6856.416-1.0293,1.0547-1.0293,1.918,0,.8623.3847,1.5166,1.1523,1.959.7656.4453,1.9317.8945,3.4942,1.3535,1.4824.4326,2.6914.8613,3.6347,1.2939.9434.4297,1.7461,1.0635,2.4063,1.8975.6582.8349.9902,1.9404.9902,3.3154,0,2.0195-.7617,3.5547-2.2832,4.6045-1.5215,1.0518-3.4141,1.5762-5.6777,1.5762-1.5879,0-3.1309-.2559-4.625-.7666-1.4961-.5127-2.7559-1.2403-3.7793-2.1836l1.414-2.7491c.8887.8106,1.9864,1.4571,3.293,1.9405,1.3066.4863,2.5801.7295,3.8203.7295,1.2363,0,2.2344-.2295,2.9883-.6875.752-.4561,1.1328-1.1582,1.1328-2.1026,0-.9697-.3984-1.6963-1.1953-2.1806-.793-.4844-2-.9698-3.6133-1.4551-1.4277-.4033-2.5937-.8135-3.4961-1.2315-.9043-.4169-1.6699-1.0302-2.3027-1.8388-.6328-.8067-.9492-1.8604-.9492-3.1504,0-1.9942.7265-3.4893,2.1816-4.4863,1.4531-.9971,3.2715-1.4952,5.4551-1.4952,1.291,0,2.5644.1817,3.8164.5459,1.2539.3633,2.3379.8565,3.252,1.4766l-1.3711,2.8682c-.8907-.5391-1.8653-.9717-2.9297-1.294Z"/><path class="cls-1" d="m328.9638,41.0488c-1.6425,1.0498-3.3125,1.5762-5.0117,1.5762-1.6933,0-3.0683-.5039-4.1191-1.5147-1.0488-1.0107-1.5762-2.539-1.5762-4.5869v-11.8379h-3.0293v-2.8691h3.0293v-5.7373h3.7988v5.7373h6.543v2.8691h-6.543v11.1524c0,1.1845.2149,2.0332.6465,2.5429.4297.5137,1.0762.7686,1.9395.7686,1.0234,0,2.1289-.3369,3.3125-1.0098l1.0097,2.9092Z"/><path class="cls-1" d="m340.4814,22.1992c1.291-.7949,2.8281-1.2041,4.6055-1.2305v3.6348c-2.1836-.0801-3.9492.4853-5.293,1.6982-1.3476,1.212-2.1152,2.8409-2.3027,4.8887v11.2705h-3.7598v-21.373h3.7598v4.6064c.6992-1.5351,1.6953-2.6992,2.9902-3.4951Z"/><path class="cls-1" d="m352.9033,13.25c.4453.458.666,1.0371.666,1.7373s-.2207,1.2803-.666,1.7383c-.4434.458-1.002.6855-1.6738.6855-.6758,0-1.2364-.2275-1.6797-.6855-.4434-.458-.666-1.0381-.666-1.7383s.2226-1.2793.666-1.7373c.4433-.458,1.0039-.6875,1.6797-.6875.6718,0,1.2304.2295,1.6738.6875Zm-3.5332,7.8379h3.7578v21.373h-3.7578v-21.373Z"/><path class="cls-1" d="m373.6924,42.4609v-2.9873c-1.5918,2.1006-4.0821,3.1514-7.4766,3.1514-1.4824,0-2.7832-.2832-3.9004-.8496-1.1172-.5645-1.9785-1.3457-2.5859-2.3428-.6035-.9961-.9063-2.1143-.9063-3.3535,0-1.9141.707-3.4278,2.1211-4.544,1.4121-1.1201,3.3848-1.6914,5.918-1.7187h6.7871v-1.0098c0-1.5088-.4649-2.6738-1.3926-3.4951-.9297-.8232-2.2812-1.2334-4.0605-1.2334-2.1563,0-4.3516.7676-6.5879,2.3047l-1.5762-2.5859c1.5371-.9971,2.957-1.7188,4.2617-2.1641,1.3086-.4424,2.8613-.6641,4.6699-.6641,2.6661,0,4.7286.6504,6.1836,1.958,1.4512,1.3077,2.1914,3.1319,2.2207,5.4766l.0411,14.0576h-3.7168Zm-2.2461-4.2217c1.2265-.8466,1.9629-1.9726,2.2031-3.373v-2.1406h-6.2598c-1.6992,0-2.959.2578-3.7812.7675-.8203.5118-1.2305,1.3194-1.2305,2.4239,0,1.1054.418,1.9795,1.252,2.6269.8339.6465,1.9531.9688,3.3535.9688,1.75,0,3.2383-.4248,4.4629-1.2735Z"/><path class="cls-1" d="m205.9736,56.6045h3.8789v24.7666h12.3652v3.5176h-16.2441v-28.2842Z"/><path class="cls-1" d="m241.5517,64.7666c1.6563.915,2.9493,2.1894,3.8789,3.8183.9297,1.628,1.3926,3.4922,1.3926,5.5967,0,2.0987-.4629,3.9737-1.3926,5.6153-.9296,1.6435-2.2226,2.9238-3.8789,3.8388-1.6582.9151-3.5507,1.374-5.6777,1.374-2.1543,0-4.0605-.4589-5.7188-1.374-1.6562-.915-2.9472-2.1885-3.8769-3.8193-.9297-1.6279-1.3965-3.5078-1.3965-5.6348,0-2.1045.4668-3.9687,1.3965-5.5967.9297-1.6289,2.2207-2.9033,3.8769-3.8183,1.6583-.9151,3.5645-1.375,5.7188-1.375,2.127,0,4.0195.4599,5.6777,1.375Zm-9.414,2.8662c-1.0918.6484-1.9414,1.5439-2.5489,2.6894-.6015,1.1446-.9043,2.4444-.9043,3.8975,0,1.4824.3028,2.8047.9043,3.9629.6075,1.1582,1.4571,2.0508,2.5489,2.6855,1.0918.6329,2.334.9483,3.7363.9483,1.375,0,2.6055-.3154,3.6973-.9483,1.0918-.6347,1.9394-1.5273,2.5468-2.6855.6036-1.1582.9063-2.4805.9063-3.9629,0-1.4531-.3027-2.7529-.9063-3.8975-.6074-1.1455-1.455-2.041-2.5468-2.6894-1.0918-.6436-2.3223-.9668-3.6973-.9668-1.4023,0-2.6445.3232-3.7363.9668Z"/><path class="cls-1" d="m261.1689,66.7471c-1.4023,0-2.6484.3085-3.7383.9277-1.0918.6211-1.9453,1.4961-2.5644,2.626-.6231,1.1328-.9317,2.4404-.9317,3.9189,0,1.4824.3047,2.79.9102,3.9199.6055,1.1328,1.4414,2.0147,2.5039,2.6475,1.0645.6328,2.2832.9492,3.6582.9492,1.3731,0,2.6113-.2295,3.7168-.6855,1.1055-.459,2.0215-1.1192,2.7481-1.9805l2.1406,2.1807c-.9688,1.2148-2.2031,2.1416-3.6973,2.788-1.4941.6465-3.1836.9707-5.0703.9707-2.0762,0-3.9199-.4589-5.5371-1.374-1.6152-.915-2.8731-2.1885-3.7754-3.8193-.9043-1.6279-1.3555-3.4942-1.3555-5.5967,0-2.0986.4512-3.9726,1.3555-5.6152.9023-1.6416,2.1602-2.9229,3.7754-3.8379,1.6172-.9151,3.4609-1.375,5.5371-1.375,1.8047,0,3.4258.2764,4.8691.8281,1.4395.5518,2.6465,1.3555,3.6153,2.4053l-2.0586,2.5849c-1.6992-1.6416-3.7324-2.4628-6.1016-2.4628Z"/><path class="cls-1" d="m287.1865,84.8887v-2.9893c-1.5879,2.0986-4.0801,3.1514-7.4727,3.1514-1.4824,0-2.7812-.2832-3.9003-.8487-1.1153-.5664-1.9786-1.3486-2.584-2.3437-.6075-.9971-.9102-2.1153-.9102-3.3555,0-1.9101.707-3.4277,2.1211-4.5439,1.4141-1.1192,3.3867-1.6914,5.9199-1.7178h6.7871v-1.0107c0-1.5059-.4648-2.6729-1.3945-3.4942s-2.2812-1.2334-4.0605-1.2334c-2.1563,0-4.3497.7676-6.586,2.3037l-1.5762-2.5859c1.5352-.9961,2.9571-1.7188,4.2637-2.1621,1.3047-.4434,2.8613-.667,4.666-.667,2.6661,0,4.7266.6533,6.1836,1.959,1.4551,1.3095,2.1934,3.1328,2.2227,5.4756l.039,14.0625h-3.7187Zm-2.2402-4.2247c1.2246-.8476,1.9589-1.9716,2.2011-3.372v-2.1416h-6.2636c-1.6953,0-2.9551.2558-3.7774.7676-.8222.5126-1.2304,1.3193-1.2304,2.4248,0,1.1044.416,1.9785,1.2519,2.6269.832.6465,1.9512.9668,3.3535.9668,1.75,0,3.2383-.4228,4.4649-1.2725Z"/><path class="cls-1" d="m298.0166,54.9053h3.7558v29.9834h-3.7558v-29.9834Z"/><path class="cls-1" d="m218.4013,103.0498c-1.4179-.416-2.7168-.626-3.9003-.626-1.6446,0-2.959.3184-3.9415.9502-.9843.6318-1.4726,1.5-1.4726,2.6035,0,.9981.2949,1.8135.8887,2.4453.5918.6348,1.3164,1.1319,2.1796,1.4971.8614.3613,2.0625.7852,3.5977,1.2715,1.9141.5937,3.4609,1.1582,4.6484,1.6963,1.1817.5381,2.1914,1.3428,3.0293,2.4053.834,1.0634,1.252,2.4716,1.252,4.2226,0,1.6143-.4395,3.0313-1.3145,4.2393-.875,1.2148-2.1015,2.1504-3.6757,2.8086-1.5762.6621-3.3887.9921-5.4356.9921-2.0762,0-4.0937-.4062-6.0605-1.2119-1.9668-.8086-3.6621-1.8857-5.0899-3.2314l1.7363-3.3555c1.3477,1.3213,2.8614,2.3379,4.5469,3.0528,1.6817.7128,3.3164,1.0693,4.9082,1.0693,1.8848,0,3.375-.3701,4.4629-1.1094,1.0918-.7432,1.6406-1.7451,1.6406-3.0127,0-.9941-.2968-1.8164-.8906-2.4638-.5918-.6465-1.3418-1.1583-2.2441-1.5362-.9004-.375-2.1192-.793-3.6582-1.251-1.8848-.5654-3.418-1.1171-4.6055-1.6591-1.1836-.5381-2.1875-1.3321-3.0098-2.3829-.8203-1.0517-1.2304-2.4375-1.2304-4.163,0-1.5049.4179-2.8399,1.2519-3.9991.834-1.1582,2.0059-2.0478,3.5176-2.664,1.5039-.6201,3.2578-.9307,5.25-.9307,1.6973,0,3.3594.2481,4.9922.7471,1.6289.498,3.0762,1.165,4.3437,1.998l-1.6191,3.4766c-1.3203-.835-2.6836-1.4609-4.0977-1.8789Z"/><path class="cls-1" d="m245.2685,107.1914c1.6563.916,2.9492,2.1904,3.8809,3.8183.9277,1.6299,1.3906,3.4961,1.3906,5.5938,0,2.1025-.4629,3.9746-1.3906,5.6191-.9317,1.6416-2.2246,2.9209-3.8809,3.8379-1.6582.916-3.5508,1.3721-5.6777,1.3721-2.1543,0-4.0586-.4561-5.7188-1.3721-1.6562-.917-2.9472-2.1884-3.8769-3.8174-.9316-1.6328-1.3945-3.5097-1.3945-5.6396,0-2.0977.4629-3.9639,1.3945-5.5938.9297-1.6279,2.2207-2.9023,3.8769-3.8183,1.6602-.916,3.5645-1.374,5.7188-1.374,2.1269,0,4.0195.458,5.6777,1.374Zm-9.414,2.8691c-1.0918.6446-1.9395,1.542-2.5489,2.6875-.6015,1.1455-.9043,2.4434-.9043,3.8985,0,1.4814.3028,2.8007.9043,3.958.6094,1.1601,1.4571,2.0566,2.5489,2.6875,1.0918.6347,2.334.9521,3.7363.9521,1.375,0,2.6055-.3174,3.6973-.9521,1.0918-.6309,1.9394-1.5274,2.5468-2.6875.6036-1.1573.9063-2.4766.9063-3.958,0-1.4551-.3027-2.753-.9063-3.8985-.6074-1.1455-1.455-2.0429-2.5468-2.6875-1.0918-.6484-2.3223-.9687-3.6973-.9687-1.4023,0-2.6445.3203-3.7363.9687Z"/><path class="cls-1" d="m264.7431,109.375c-1.0644-.3242-2.08-.4873-3.0507-.4873-1.1309,0-2.0411.2109-2.7266.6269-.6875.42-1.0332,1.0567-1.0332,1.919s.3867,1.5156,1.1543,1.9599c.7676.4444,1.9336.8946,3.4961,1.3536,1.4805.4306,2.6933.8623,3.6328,1.2919.9453.4336,1.7461,1.0665,2.4062,1.9014.6602.835.9903,1.9375.9903,3.3115,0,2.0205-.7617,3.5577-2.2832,4.6065-1.5215,1.0498-3.4141,1.5742-5.6778,1.5742-1.5878,0-3.1308-.2559-4.625-.7646-1.4941-.5137-2.7539-1.2413-3.7773-2.1817l1.4141-2.75c.8886.8106,1.9843,1.4541,3.291,1.9414,1.3086.4834,2.5801.7266,3.8203.7266,1.2383,0,2.2344-.2295,2.9883-.6885.7539-.4561,1.1328-1.1582,1.1328-2.0986,0-.9717-.3985-1.6973-1.1914-2.1846-.7969-.4834-2-.9688-3.6192-1.4551-1.4257-.4033-2.5918-.8125-3.4941-1.2304-.9004-.417-1.6719-1.0303-2.3008-1.8389-.6348-.8076-.9512-1.8574-.9512-3.1504,0-1.9932.7266-3.4902,2.1817-4.4863,1.4531-.9961,3.2734-1.4922,5.4531-1.4922,1.2949,0,2.5684.1797,3.8203.5429,1.252.3643,2.3379.8565,3.252,1.4756l-1.3731,2.8692c-.8906-.5391-1.8652-.9727-2.9297-1.292Z"/><path class="cls-1" d="m286.2568,125.8994c-1.6426,1.0508-3.3125,1.5732-5.0098,1.5732-1.6953,0-3.0703-.5029-4.121-1.5117-1.0508-1.0107-1.5743-2.541-1.5743-4.5859v-11.8408h-3.0332v-2.8682h3.0332v-5.7373h3.7969v5.7373h6.5449v2.8682h-6.5449v11.1533c0,1.1855.2168,2.0322.6445,2.5459.4336.5097,1.0782.7646,1.9414.7646,1.0235,0,2.127-.333,3.3125-1.0088l1.0098,2.9102Z"/><path class="cls-1" d="m306.8232,108.749c1.6992,1.9512,2.5449,4.6631,2.5449,8.1387,0,.5381-.0117.9443-.0371,1.2129h-16.8886c.2949,1.9131,1.0957,3.4345,2.4003,4.5654,1.3086,1.1328,2.9161,1.6973,4.8301,1.6973,1.2657,0,2.4453-.2286,3.5352-.6856,1.0918-.459,2.041-1.1074,2.8476-1.9414l2.0625,2.1426c-1.0507,1.1299-2.3164,2.0068-3.7988,2.6269-1.4824.6202-3.125.9268-4.9297.9268-2.0996,0-3.9668-.4492-5.5957-1.3516-1.6289-.9033-2.8965-2.1757-3.7969-3.8183-.9062-1.6436-1.3554-3.5156-1.3554-5.6162s.4492-3.9668,1.3554-5.5967c.9004-1.6309,2.1622-2.9082,3.7774-3.8379s3.4609-1.3945,5.5351-1.3945c3.3125,0,5.8165.9775,7.5137,2.9316Zm-.8476,6.4424c-.1055-1.9395-.7539-3.4678-1.9395-4.5869-1.1875-1.1162-2.7461-1.6758-4.6875-1.6758-1.8848,0-3.4531.5674-4.7051,1.6963-1.2558,1.1328-2.0019,2.6523-2.2441,4.5664h13.5762Z"/><path class="cls-1" d="m332.4834,108.0176c1.4258,1.4707,2.1406,3.497,2.1406,6.083v13.2119h-3.7598v-12.2012c0-1.8047-.5058-3.2109-1.5136-4.2236-1.0098-1.0088-2.4063-1.5127-4.1836-1.5127-1.9121.0234-3.4668.6377-4.6641,1.8369-1.1992,1.1982-1.8809,2.7549-2.041,4.667v11.4336h-3.7598v-21.3721h3.7598v4.5234c1.4277-3.0439,4.1328-4.5908,8.1191-4.6464,2.5078,0,4.4727.7324,5.9024,2.2002Z"/><path class="cls-1" d="m345.0674,98.1006c.4453.458.666,1.0361.666,1.7363,0,.6992-.2207,1.2793-.666,1.7383-.4454.458-1.0039.6855-1.6758.6855-.6758,0-1.2344-.2275-1.6797-.6855-.4434-.459-.6641-1.0391-.6641-1.7383,0-.7002.2207-1.2783.6641-1.7363.4453-.4561,1.0039-.6885,1.6797-.6885.6719,0,1.2304.2324,1.6758.6885Zm-3.5372,7.8398h3.7579v21.3721h-3.7579v-21.3721Z"/><path class="cls-1" d="m370.0146,107.1914c1.5625.916,2.7754,2.1963,3.6387,3.8389.8613,1.6425,1.291,3.5273,1.291,5.6552,0,2.1026-.4219,3.9688-1.2715,5.5957-.8476,1.6328-2.0468,2.8965-3.5976,3.7998-1.5469.9024-3.3184,1.3516-5.3106,1.3516-1.8047,0-3.3945-.373-4.7695-1.1309-1.3731-.7529-2.4512-1.831-3.2324-3.2304v4.2412h-3.7559v-29.9805h3.7559v12.8506c.7812-1.4004,1.8535-2.4805,3.2148-3.2334,1.3574-.7539,2.9277-1.1318,4.707-1.1318,1.9922,0,3.7676.458,5.3301,1.374Zm-2.3613,15.999c1.0898-.6435,1.9375-1.5469,2.5449-2.7041.6074-1.1592.9102-2.4678.9102-3.9219,0-1.4287-.3106-2.7197-.9297-3.8779-.6211-1.1572-1.4688-2.0615-2.5449-2.709-1.0782-.6435-2.3047-.9687-3.6778-.9687-1.3769,0-2.6074.3252-3.6972.9687-1.0918.6475-1.9473,1.5518-2.5645,2.709-.6211,1.1582-.9316,2.4492-.9316,3.8779,0,1.4834.3105,2.7969.9316,3.9405.6172,1.1455,1.4727,2.042,2.5645,2.6855,1.0898.6475,2.3203.9707,3.6972.9707,1.3731,0,2.6055-.3232,3.6973-.9707Z"/><path class="cls-1" d="m380.5986,97.332h3.7598v29.9805h-3.7598v-29.9805Z"/><path class="cls-1" d="m408.1963,108.749c1.6992,1.9512,2.5468,4.6631,2.5468,8.1387,0,.5381-.0136.9443-.0429,1.2129h-16.8867c.2949,1.9131,1.0957,3.4345,2.4042,4.5654,1.3047,1.1328,2.9161,1.6973,4.8282,1.6973,1.2676,0,2.4433-.2286,3.5371-.6856,1.0879-.459,2.039-1.1074,2.8476-1.9414l2.0586,2.1426c-1.0488,1.1299-2.3144,2.0068-3.7968,2.6269-1.4825.6202-3.1231.9268-4.9297.9268-2.1016,0-3.9668-.4492-5.5938-1.3516-1.6328-.9033-2.8965-2.1757-3.8008-3.8183-.9023-1.6436-1.3515-3.5156-1.3515-5.6162s.4492-3.9668,1.3515-5.5967c.9043-1.6309,2.1621-2.9082,3.7793-3.8379,1.6153-.9297,3.461-1.3945,5.5332-1.3945,3.3164,0,5.8204.9775,7.5157,2.9316Zm-.8477,6.4424c-.1074-1.9395-.7539-3.4678-1.9375-4.5869-1.1875-1.1162-2.75-1.6758-4.6875-1.6758-1.8848,0-3.4551.5674-4.707,1.6963-1.2539,1.1328-2,2.6523-2.2442,4.5664h13.5762Z"/></g><g><polygon class="cls-1" points="0 13.2099 28.3398 .0097 28.3398 127.5596 0 127.5596 0 13.2099"/><polygon class="cls-1" points="115.3301 103.25 104 127.5596 42.5205 127.5596 42.5205 13.2099 70.8701 .0097 70.8701 103.25 115.3301 103.25"/><path class="cls-2" d="m180.7705,89.6396c0,7.8799-2.1201,14.7696-6.3008,20.4805-4.1797,5.71-9.9893,10.0898-17.2695,13.0293-7.2803,2.9307-15.6602,4.4102-24.9102,4.4102h-28.29l11.3301-24.3096h17.3095c5.6602,0,10.1309-1.0508,13.3008-3.1201,3.1299-2.0401,4.71-5.0401,4.71-8.9102,0-3.0605-1.0703-5.6299-3.1602-7.6201-2.1406-2.0098-4.8906-3.6797-8.1797-4.9502-3.3408-1.29-7.9804-2.7598-13.7803-4.3897-8.4306-2.3398-15.4003-4.7099-20.7099-7.0498-5.3506-2.3505-10.0303-5.9902-13.9102-10.8105-3.8896-4.8398-5.8701-11.3496-5.8701-19.3496,0-7.4102,2.0303-14.0098,6.0401-19.6006,4-5.5898,9.6601-9.9395,16.83-12.9395,7.1504-2.9902,15.5899-4.5097,25.0801-4.5097,8.4297,0,16.8594,1.25,25.0596,3.7099,8.1904,2.46,15.5498,5.7793,21.8799,9.8799l.2099.1397-.0996.2197-10.7295,23.04-.1406.2901-.2695-.1592c-6.2803-3.8506-13.0401-6.9404-20.0801-9.2109-7.0303-2.2696-13.1201-3.42-18.1104-3.42-4.7402,0-8.5302.8702-11.29,2.6006-2.71,1.6895-4.0898,4.2198-4.0898,7.5,0,4.2002,2,7.46,5.9296,9.6895,4.0108,2.2607,10.2901,4.6504,18.67,7.1006,8.4101,2.4502,15.4404,4.9394,20.8808,7.3994,5.4697,2.4707,10.21,6.2207,14.0899,11.1601,3.8896,4.9502,5.8701,11.5801,5.8701,19.7002Z"/></g></svg>