<?xml version="1.0" encoding="UTF-8"?> <svg xmlns="http://www.w3.org/2000/svg" id="Capa_1" data-name="Capa 1" viewBox="0 0 115.92 36"><defs><style>.cls-1{fill:#1d1d1b;}.cls-2{fill:#43584a;}.cls-3{fill:#989f96;}</style></defs><path class="cls-1" d="M58.13,4h1.09v8H58.13Z"></path><path class="cls-1" d="M66.48,6.54a2.37,2.37,0,0,1,.6,1.72V12H66V8.54a1.49,1.49,0,0,0-1.61-1.62,1.79,1.79,0,0,0-1.31.52,2.07,2.07,0,0,0-.58,1.32V12H61.46V6h1.06V7.23a2.32,2.32,0,0,1,2.29-1.31A2.21,2.21,0,0,1,66.48,6.54Z"></path><path class="cls-1" d="M74.65,3.52V12H73.59V10.79a2.35,2.35,0,0,1-.92.93,2.74,2.74,0,0,1-1.34.32,2.9,2.9,0,0,1-1.51-.39,2.78,2.78,0,0,1-1-1.1A3.46,3.46,0,0,1,68.44,9a3.38,3.38,0,0,1,.36-1.58,2.79,2.79,0,0,1,1-1.08,3,3,0,0,1,1.5-.38,2.71,2.71,0,0,1,1.36.32,2.24,2.24,0,0,1,.91.92V3.52Zm-2,7.34a2,2,0,0,0,.72-.77A2.24,2.24,0,0,0,73.59,9a2.26,2.26,0,0,0-.26-1.12,2,2,0,0,0-.72-.77,2.06,2.06,0,0,0-1.06-.27,2,2,0,0,0-1,.28,2,2,0,0,0-.73.77,2.48,2.48,0,0,0,0,2.21,2,2,0,0,0,.73.77,2.2,2.2,0,0,0,2.11,0Z"></path><path class="cls-1" d="M82.18,6v6H81.11V10.71A2.28,2.28,0,0,1,78.87,12a2.18,2.18,0,0,1-1.64-.62,2.38,2.38,0,0,1-.59-1.72V6h1.07V9.4a1.65,1.65,0,0,0,.42,1.19,1.51,1.51,0,0,0,1.14.42,1.67,1.67,0,0,0,1.34-.59,2.28,2.28,0,0,0,.5-1.5V6Zm-2-2.54,1.09.48L79.82,5l-.9-.12Z"></path><path class="cls-1" d="M86.77,6.92a3,3,0,0,0-.86-.14,1.44,1.44,0,0,0-.77.18.58.58,0,0,0-.29.54.62.62,0,0,0,.32.56,5.29,5.29,0,0,0,1,.38,7.25,7.25,0,0,1,1,.36,1.7,1.7,0,0,1,.68.54,1.43,1.43,0,0,1,.28.93,1.47,1.47,0,0,1-.64,1.3,2.72,2.72,0,0,1-1.6.45,3.88,3.88,0,0,1-1.31-.22,3,3,0,0,1-1.07-.61l.4-.78a2.83,2.83,0,0,0,.93.55,3.26,3.26,0,0,0,1.08.2,1.58,1.58,0,0,0,.84-.19.64.64,0,0,0,.32-.59.68.68,0,0,0-.33-.62,4.83,4.83,0,0,0-1-.41,6.14,6.14,0,0,1-1-.35,1.81,1.81,0,0,1-.65-.52,1.37,1.37,0,0,1-.27-.89,1.43,1.43,0,0,1,.62-1.26A2.66,2.66,0,0,1,86,5.91a3.89,3.89,0,0,1,1.07.15,3,3,0,0,1,.92.42l-.38.81A3.45,3.45,0,0,0,86.77,6.92Z"></path><path class="cls-1" d="M92.84,11.58a2.55,2.55,0,0,1-1.41.45,1.61,1.61,0,0,1-1.17-.43,1.72,1.72,0,0,1-.44-1.29V7H89V6.16h.86V4.54h1.07V6.16h1.85V7H90.89v3.14a1.11,1.11,0,0,0,.18.72.67.67,0,0,0,.55.22,2,2,0,0,0,.94-.29Z"></path><path class="cls-1" d="M96.09,6.27a2.5,2.5,0,0,1,1.3-.35v1a2,2,0,0,0-1.49.48,2,2,0,0,0-.65,1.38V12H94.19V6h1.06v1.3A2.14,2.14,0,0,1,96.09,6.27Z"></path><path class="cls-1" d="M99.6,3.74a.69.69,0,0,1,.18.49.69.69,0,0,1-.18.49.65.65,0,0,1-.48.19.63.63,0,0,1-.47-.19.73.73,0,0,1,0-1,.63.63,0,0,1,.47-.19A.65.65,0,0,1,99.6,3.74ZM98.6,6h1.06v6H98.6Z"></path><path class="cls-1" d="M105.46,12v-.84a2.48,2.48,0,0,1-2.11.89,2.44,2.44,0,0,1-1.1-.24,1.72,1.72,0,0,1-1-1.61,1.53,1.53,0,0,1,.6-1.28,2.64,2.64,0,0,1,1.67-.49h1.91V8.13a1.27,1.27,0,0,0-.39-1,1.7,1.7,0,0,0-1.15-.34,3.23,3.23,0,0,0-1.86.65l-.44-.73a4.86,4.86,0,0,1,1.2-.61,4,4,0,0,1,1.32-.19,2.51,2.51,0,0,1,1.74.55A2,2,0,0,1,106.5,8v4Zm-.63-1.19a1.39,1.39,0,0,0,.62-.95v-.6h-1.76a2.12,2.12,0,0,0-1.07.21.76.76,0,0,0-.35.69.9.9,0,0,0,.35.74,1.55,1.55,0,0,0,.95.27A2.17,2.17,0,0,0,104.83,10.79Z"></path><path class="cls-1" d="M58.13,16h1.09v7h3.49v1H58.13Z"></path><path class="cls-1" d="M68.17,18.28a2.85,2.85,0,0,1,1.1,1.08,3.4,3.4,0,0,1,0,3.16,2.79,2.79,0,0,1-1.1,1.08,3.24,3.24,0,0,1-1.6.39A3.29,3.29,0,0,1,65,23.6a2.74,2.74,0,0,1-1.09-1.07,3.18,3.18,0,0,1-.39-1.59,3.14,3.14,0,0,1,.39-1.58A2.83,2.83,0,0,1,65,18.28a3.29,3.29,0,0,1,1.62-.39A3.24,3.24,0,0,1,68.17,18.28Zm-2.66.81a2,2,0,0,0-.72.76,2.44,2.44,0,0,0-.25,1.1,2.48,2.48,0,0,0,.25,1.11,2,2,0,0,0,.72.76,2.06,2.06,0,0,0,1.06.27,2,2,0,0,0,1-.27,1.82,1.82,0,0,0,.72-.76A2.36,2.36,0,0,0,68.59,21a2.32,2.32,0,0,0-.26-1.1,1.82,1.82,0,0,0-.72-.76,2,2,0,0,0-1-.28A2.07,2.07,0,0,0,65.51,19.09Z"></path><path class="cls-1" d="M73.71,18.84a2.06,2.06,0,0,0-1.06.26,1.77,1.77,0,0,0-.72.74A2.22,2.22,0,0,0,71.67,21a2.32,2.32,0,0,0,.25,1.1,1.9,1.9,0,0,0,.71.75,2,2,0,0,0,1,.27,2.69,2.69,0,0,0,1-.2,2.09,2.09,0,0,0,.78-.55l.6.61a2.65,2.65,0,0,1-1,.79,3.61,3.61,0,0,1-1.43.27,3.13,3.13,0,0,1-1.57-.39A2.66,2.66,0,0,1,71,22.53,3.16,3.16,0,0,1,70.61,21,3.2,3.2,0,0,1,71,19.36a2.75,2.75,0,0,1,1.06-1.08,3.13,3.13,0,0,1,1.57-.39,3.94,3.94,0,0,1,1.37.23,2.73,2.73,0,0,1,1,.68l-.58.73A2.39,2.39,0,0,0,73.71,18.84Z"></path><path class="cls-1" d="M81.05,24v-.85a2.46,2.46,0,0,1-2.11.89,2.41,2.41,0,0,1-1.1-.24,1.8,1.8,0,0,1-.73-.66,1.77,1.77,0,0,1-.26-.94,1.57,1.57,0,0,1,.6-1.29,2.74,2.74,0,0,1,1.67-.48H81V20.1a1.24,1.24,0,0,0-.39-1,1.67,1.67,0,0,0-1.15-.35,3.3,3.3,0,0,0-1.86.65l-.44-.73a5.23,5.23,0,0,1,1.2-.61,4,4,0,0,1,1.32-.19,2.51,2.51,0,0,1,1.74.55A2,2,0,0,1,82.09,20v4Zm-.63-1.19a1.45,1.45,0,0,0,.62-1v-.6H79.27a2,2,0,0,0-1.06.22.72.72,0,0,0-.35.68.9.9,0,0,0,.35.74,1.53,1.53,0,0,0,1,.27A2.25,2.25,0,0,0,80.42,22.77Z"></path><path class="cls-1" d="M84.11,15.5h1.06V24H84.11Z"></path><path class="cls-1" d="M61.64,29.08a4.22,4.22,0,0,0-1.1-.17,2.13,2.13,0,0,0-1.12.26.85.85,0,0,0-.41.74,1,1,0,0,0,.25.69,1.75,1.75,0,0,0,.61.42q.38.15,1,.36a12,12,0,0,1,1.31.48,2.26,2.26,0,0,1,.86.68,1.91,1.91,0,0,1,.35,1.19,2,2,0,0,1-.37,1.2,2.41,2.41,0,0,1-1,.79,3.83,3.83,0,0,1-1.53.28,4.66,4.66,0,0,1-3.15-1.26l.49-.94a4.18,4.18,0,0,0,1.28.86,3.59,3.59,0,0,0,1.39.3,2.22,2.22,0,0,0,1.26-.31,1,1,0,0,0,.46-.85,1,1,0,0,0-.25-.7,1.9,1.9,0,0,0-.63-.43,10.29,10.29,0,0,0-1-.35A10.53,10.53,0,0,1,59,31.85a2.23,2.23,0,0,1-.85-.67A1.82,1.82,0,0,1,57.79,30a1.94,1.94,0,0,1,.35-1.13,2.22,2.22,0,0,1,1-.75,3.81,3.81,0,0,1,1.49-.26,4.75,4.75,0,0,1,1.4.21,5,5,0,0,1,1.23.56l-.46,1A4.77,4.77,0,0,0,61.64,29.08Z"></path><path class="cls-1" d="M69.22,30.25a2.85,2.85,0,0,1,1.1,1.08,3.4,3.4,0,0,1,0,3.16,2.81,2.81,0,0,1-1.1,1.09,3.24,3.24,0,0,1-1.6.38A3.29,3.29,0,0,1,66,35.58a2.83,2.83,0,0,1-1.09-1.08,3.42,3.42,0,0,1,0-3.17A2.83,2.83,0,0,1,66,30.25a3.29,3.29,0,0,1,1.62-.39A3.24,3.24,0,0,1,69.22,30.25Zm-2.66.81a2,2,0,0,0-.72.76,2.32,2.32,0,0,0-.25,1.1A2.4,2.4,0,0,0,65.84,34a2,2,0,0,0,.72.76,2.16,2.16,0,0,0,1.06.26,2.11,2.11,0,0,0,1-.26,1.88,1.88,0,0,0,.72-.76,2.4,2.4,0,0,0,.26-1.12,2.32,2.32,0,0,0-.26-1.1,1.88,1.88,0,0,0-.72-.76,2,2,0,0,0-1-.27A2.06,2.06,0,0,0,66.56,31.06Z"></path><path class="cls-1" d="M74.72,30.87a3,3,0,0,0-.86-.14,1.44,1.44,0,0,0-.77.18.63.63,0,0,0,0,1.09,4.67,4.67,0,0,0,1,.38,9.31,9.31,0,0,1,1,.37,1.78,1.78,0,0,1,.68.54,1.41,1.41,0,0,1,.28.93,1.48,1.48,0,0,1-.64,1.3,2.75,2.75,0,0,1-1.61.44,4.11,4.11,0,0,1-1.3-.21,3,3,0,0,1-1.07-.62l.4-.77a2.65,2.65,0,0,0,.93.54,3,3,0,0,0,1.08.21,1.68,1.68,0,0,0,.84-.19.73.73,0,0,0,0-1.21,4.27,4.27,0,0,0-1-.41,7.09,7.09,0,0,1-1-.35,1.73,1.73,0,0,1-.65-.52,1.39,1.39,0,0,1-.27-.89,1.43,1.43,0,0,1,.62-1.27,2.65,2.65,0,0,1,1.53-.42A3.58,3.58,0,0,1,75,30a3.24,3.24,0,0,1,.92.41l-.39.81A3.58,3.58,0,0,0,74.72,30.87Z"></path><path class="cls-1" d="M80.79,35.53a2.61,2.61,0,0,1-1.42.45,1.64,1.64,0,0,1-1.16-.43,1.72,1.72,0,0,1-.44-1.3V30.91h-.86V30.1h.86V28.48h1.07V30.1h1.85v.81H78.84v3.15a1.13,1.13,0,0,0,.18.72.68.68,0,0,0,.55.21,1.87,1.87,0,0,0,.93-.28Z"></path><path class="cls-1" d="M86.59,30.69a3.39,3.39,0,0,1,.72,2.3,3.13,3.13,0,0,1,0,.34H82.53a2.09,2.09,0,0,0,.68,1.29,2,2,0,0,0,1.36.48,2.55,2.55,0,0,0,1-.2,2.5,2.5,0,0,0,.81-.54L87,35a3.07,3.07,0,0,1-1.07.74,3.53,3.53,0,0,1-1.4.26,3.16,3.16,0,0,1-1.58-.38,2.75,2.75,0,0,1-1.07-1.07,3.34,3.34,0,0,1-.38-1.59,3.27,3.27,0,0,1,.38-1.58,2.78,2.78,0,0,1,1.07-1.08,3.12,3.12,0,0,1,1.56-.4A2.66,2.66,0,0,1,86.59,30.69Zm-.24,1.82a1.87,1.87,0,0,0-.54-1.3,1.89,1.89,0,0,0-1.33-.47,1.92,1.92,0,0,0-1.33.48,2,2,0,0,0-.63,1.29Z"></path><path class="cls-1" d="M93.83,30.48a2.35,2.35,0,0,1,.61,1.72v3.73H93.38V32.49a1.66,1.66,0,0,0-.43-1.2,1.62,1.62,0,0,0-1.18-.42,1.79,1.79,0,0,0-1.32.52,2,2,0,0,0-.57,1.31v3.23H88.82v-6h1.06v1.28a2.33,2.33,0,0,1,2.29-1.32A2.21,2.21,0,0,1,93.83,30.48Z"></path><path class="cls-1" d="M97.39,27.69a.69.69,0,0,1,.18.49.71.71,0,0,1-.18.49.65.65,0,0,1-.48.19.61.61,0,0,1-.47-.19.67.67,0,0,1-.19-.49.66.66,0,0,1,.19-.49.62.62,0,0,1,.47-.2A.66.66,0,0,1,97.39,27.69Zm-1,2.21h1.06v6H96.39Z"></path><path class="cls-1" d="M104.43,30.25a2.62,2.62,0,0,1,1,1.09,3.28,3.28,0,0,1,.37,1.59,3.38,3.38,0,0,1-.36,1.58,2.57,2.57,0,0,1-1,1.07,2.84,2.84,0,0,1-1.5.38,2.66,2.66,0,0,1-1.34-.32,2.22,2.22,0,0,1-.91-.91v1.2H99.63V27.47h1.06V31.1a2.34,2.34,0,0,1,.9-.92,2.75,2.75,0,0,1,1.33-.32A3,3,0,0,1,104.43,30.25Zm-.67,4.52a1.85,1.85,0,0,0,.72-.77,2.32,2.32,0,0,0,.25-1.1,2.24,2.24,0,0,0-.26-1.1,1.88,1.88,0,0,0-.72-.76,2,2,0,0,0-1-.28,2.06,2.06,0,0,0-1,.28,1.88,1.88,0,0,0-.72.76A2.48,2.48,0,0,0,101,34a1.88,1.88,0,0,0,.72.76,2.16,2.16,0,0,0,2.09,0Z"></path><path class="cls-1" d="M107.41,27.47h1.06v8.46h-1.06Z"></path><path class="cls-1" d="M115.2,30.69a3.39,3.39,0,0,1,.72,2.3,3.13,3.13,0,0,1,0,.34h-4.77a2.09,2.09,0,0,0,.68,1.29,2,2,0,0,0,1.36.48,2.55,2.55,0,0,0,1-.2,2.5,2.5,0,0,0,.81-.54l.58.6a3,3,0,0,1-1.08.74,3.45,3.45,0,0,1-1.39.26,3.16,3.16,0,0,1-1.58-.38,2.69,2.69,0,0,1-1.07-1.07,3.34,3.34,0,0,1-.38-1.59,3.27,3.27,0,0,1,.38-1.58,2.78,2.78,0,0,1,1.07-1.08,3.09,3.09,0,0,1,1.56-.4A2.66,2.66,0,0,1,115.2,30.69ZM115,32.51a1.87,1.87,0,0,0-.54-1.3,1.89,1.89,0,0,0-1.33-.47,1.92,1.92,0,0,0-1.33.48,2,2,0,0,0-.63,1.29Z"></path><polygon class="cls-2" points="0 3.73 8 0 8 36 0 36 0 3.73"></polygon><polygon class="cls-2" points="32.55 29.14 29.35 36 12 36 12 3.73 20 0 20 29.14 32.55 29.14"></polygon><path class="cls-3" d="M51,25.3a9.56,9.56,0,0,1-1.78,5.78,11,11,0,0,1-4.87,3.68,19,19,0,0,1-7,1.24h-8l3.2-6.86h4.88a6.92,6.92,0,0,0,3.76-.88,2.84,2.84,0,0,0,1.33-2.52,2.88,2.88,0,0,0-.9-2.15,7.2,7.2,0,0,0-2.3-1.39c-1-.37-2.26-.78-3.89-1.24a44.5,44.5,0,0,1-5.85-2,10.4,10.4,0,0,1-3.92-3A8.51,8.51,0,0,1,24,10.46a9.31,9.31,0,0,1,1.7-5.54,10.94,10.94,0,0,1,4.75-3.65A18.41,18.41,0,0,1,37.53,0,24.37,24.37,0,0,1,44.6,1.05a23.8,23.8,0,0,1,6.18,2.79l.06,0,0,.07-3,6.5,0,.08-.07,0A26.21,26.21,0,0,0,42,7.88a17.19,17.19,0,0,0-5.11-1,6,6,0,0,0-3.19.74,2.35,2.35,0,0,0-1.15,2.11,3,3,0,0,0,1.67,2.74,27.25,27.25,0,0,0,5.27,2,44.5,44.5,0,0,1,5.89,2.09,10.45,10.45,0,0,1,4,3.15A8.78,8.78,0,0,1,51,25.3Z"></path></svg> 